<svg width="84" height="59" viewBox="0 0 84 59" fill="none" xmlns="http://www.w3.org/2000/svg">
    <path d="M13.6694 58.6441C6.13054 58.6441 0 52.5135 0 44.9746C0 37.4357 6.13054 31.3052 13.6694 31.3052C21.2083 31.3052 27.3389 37.4357 27.3389 44.9746C27.3389 52.5549 21.2083 58.6441 13.6694 58.6441Z"
          fill="white"/>
    <path d="M45.9791 1.52216L31.1498 25.7543C30.7356 26.4585 31.1912 27.3284 31.9783 27.3284H46.8075H61.6368C62.4238 27.3284 62.8795 26.4171 62.4652 25.7543L47.636 1.52216C47.2218 0.900818 46.3519 0.900818 45.9791 1.52216Z"
          fill="white"/>
    <path d="M27.0487 5.62311L21.7052 0.279602C21.3324 -0.0932007 20.6697 -0.0932007 20.2969 0.279602L14.4149 6.1616C14.0421 6.5344 13.3793 6.5344 13.0065 6.1616L7.12449 0.279602C6.75168 -0.0932007 6.08893 -0.0932007 5.71612 0.279602L0.37262 5.62311C-0.000183128 5.99591 -0.000183128 6.65867 0.37262 7.03148L6.25461 12.9135C6.62741 13.2863 6.62741 13.949 6.25461 14.3218L0.37262 20.2038C-0.000183128 20.5766 -0.000183128 21.2394 0.37262 21.6122L5.71612 26.9557C6.08893 27.3285 6.75168 27.3285 7.12449 26.9557L13.0065 21.0737C13.3793 20.7009 14.0421 20.7009 14.4149 21.0737L20.2969 26.9557C20.6697 27.3285 21.3324 27.3285 21.7052 26.9557L27.0487 21.6122C27.4215 21.2394 27.4215 20.5766 27.0487 20.2038L21.1667 14.3218C20.7939 13.949 20.7939 13.2863 21.1667 12.9135L27.0487 7.03148C27.463 6.65867 27.463 6.03733 27.0487 5.62311Z"
          fill="white"/>
    <path d="M33.759 40.7494V42.4891H36.7829V43.6903H33.759V46.0514H32.2678V39.5481H37.1557V40.7494H33.759Z"
          fill="white"/>
    <path d="M39.1857 45.3887C38.6886 44.8916 38.3987 44.146 38.3987 43.1933V39.5481H39.8899V43.1104C39.8899 44.2703 40.387 44.8502 41.3397 44.8502C41.7953 44.8502 42.1681 44.7259 42.4167 44.436C42.6652 44.146 42.7895 43.7318 42.7895 43.1104V39.5481H44.2807V43.1933C44.2807 44.146 44.0322 44.8916 43.4937 45.3887C42.9966 45.8857 42.251 46.1757 41.3397 46.1757C40.4284 46.1757 39.6828 45.8857 39.1857 45.3887Z"
          fill="white"/>
    <path d="M47.263 40.7908H45.1919V39.5481H50.8254V40.7908H48.7542V46.0514H47.263V40.7908Z" fill="white"/>
    <path d="M52.5236 45.3887C52.0265 44.8916 51.7366 44.146 51.7366 43.1933V39.5481H53.2278V43.1104C53.2278 44.2703 53.7249 44.8502 54.6776 44.8502C55.1332 44.8502 55.506 44.7259 55.7546 44.436C56.0031 44.146 56.1274 43.7318 56.1274 43.1104V39.5481H57.6186V43.1933C57.6186 44.146 57.37 44.8916 56.8315 45.3887C56.3345 45.8857 55.5889 46.1757 54.6776 46.1757C53.7663 46.1757 53.0621 45.8857 52.5236 45.3887Z"
          fill="white"/>
    <path d="M63.5007 46.0518L62.258 44.2292H62.1751H60.8496V46.0518H59.3584V39.5898H62.1751C62.755 39.5898 63.2521 39.6727 63.6663 39.8798C64.0806 40.0869 64.4119 40.3355 64.6605 40.7083C64.8676 41.0396 64.9919 41.4953 64.9919 41.9509C64.9919 42.448 64.8676 42.8622 64.6605 43.1936C64.4119 43.525 64.0806 43.8149 63.6663 43.9806L65.1161 46.0518H63.5007ZM63.1279 41.0811C62.8793 40.8739 62.5479 40.7911 62.0923 40.7911H60.8496V43.0693H62.0923C62.5479 43.0693 62.8793 42.9865 63.1279 42.7794C63.3764 42.5723 63.4592 42.3237 63.4592 41.9509C63.5006 41.5367 63.3764 41.2882 63.1279 41.0811Z"
          fill="white"/>
    <path d="M71.4953 44.8502V46.0514H66.4832V39.5481H71.371V40.7494H67.9744V42.1577H70.9568V43.359H67.9744V44.8502H71.4953Z"
          fill="white"/>
    <path d="M36.5346 56.6556H33.5107L32.9308 58.064H31.3982L34.2978 51.6021H35.789L38.6886 58.064H37.1145L36.5346 56.6556ZM36.0789 55.5372L35.0434 53.0518L34.0078 55.5372H36.0789Z"
          fill="white"/>
    <path d="M40.8426 57.7325C40.3041 57.4426 39.8899 57.0283 39.5999 56.5312C39.31 56.0342 39.1443 55.4543 39.1443 54.7915C39.1443 54.1702 39.31 53.5902 39.5999 53.0518C39.8899 52.5547 40.3455 52.1405 40.8426 51.8505C41.3811 51.5605 41.961 51.4363 42.6238 51.4363C43.2037 51.4363 43.7008 51.5191 44.1564 51.7262C44.6121 51.9334 44.9849 52.2233 45.3162 52.5961L44.3635 53.466C43.9079 52.9689 43.3694 52.7204 42.748 52.7204C42.3338 52.7204 42.0024 52.8032 41.6711 52.9689C41.3397 53.1346 41.0911 53.3831 40.9255 53.7145C40.7598 54.0459 40.6769 54.3773 40.6769 54.7915C40.6769 55.2057 40.7598 55.5371 40.9255 55.8685C41.0911 56.1999 41.3397 56.4484 41.6711 56.6141C42.0024 56.7798 42.3338 56.8626 42.748 56.8626C43.4108 56.8626 43.9493 56.6141 44.3635 56.0756L45.3162 56.9455C45.0263 57.3183 44.6121 57.6082 44.1564 57.8153C43.7008 58.0225 43.2037 58.1053 42.6238 58.1053C42.0024 58.1467 41.3811 58.0225 40.8426 57.7325Z"
          fill="white"/>
    <path d="M50.7424 56.6556H47.7185L47.1386 58.064H45.606L48.5055 51.6021H49.9967L52.8963 58.064H51.3223L50.7424 56.6556ZM50.2867 55.5372L49.2511 53.0518L48.2156 55.5372H50.2867Z"
          fill="white"/>
    <path d="M53.8494 51.5605H56.7904C57.4945 51.5605 58.1159 51.6848 58.6544 51.9748C59.1929 52.2233 59.6071 52.6375 59.897 53.0932C60.187 53.5903 60.3527 54.1288 60.3527 54.7915C60.3527 55.4543 60.187 55.9928 59.897 56.4898C59.6071 56.9869 59.1929 57.3597 58.6544 57.6082C58.1159 57.8568 57.4945 58.0225 56.7904 58.0225H53.8494V51.5605ZM56.7075 56.8212C57.3703 56.8212 57.8673 56.6555 58.2401 56.2827C58.6129 55.9099 58.8201 55.4129 58.8201 54.8329C58.8201 54.2116 58.6129 53.7145 58.2401 53.3831C57.8673 53.0103 57.3289 52.8446 56.7075 52.8446H55.3406V56.8626H56.7075V56.8212Z"
          fill="white"/>
    <path d="M66.7729 56.8626V58.0639H61.7607V51.5605H66.6486V52.7618H63.252V54.1702H66.2758V55.33H63.252V56.8626H66.7729Z"
          fill="white"/>
    <path d="M74.1462 58.0639V54.1702L72.2407 57.3597H71.578L69.6725 54.253V58.0639H68.2642V51.5605H69.5068L71.9093 55.5785L74.3119 51.5605H75.5545V58.0639H74.1462Z"
          fill="white"/>
    <path d="M80.4838 55.7442V58.0639H78.9926V55.7442L76.4658 51.5605H78.0813L79.8211 54.4601L81.5194 51.5605H83.0106L80.4838 55.7442Z"
          fill="white"/>
</svg>