<svg width="180" height="180" viewBox="0 0 180 180" fill="none" xmlns="http://www.w3.org/2000/svg">
    <path d="M177.28 45.7286L177.26 45.7462L177.242 45.7648L138.411 84.6393C135.56 87.4936 135.56 92.5064 138.411 95.3607L177.242 134.235C179.313 136.309 179.313 140.056 177.242 142.13L141.966 177.445C139.896 179.518 136.154 179.518 134.084 177.445L95.2536 138.571C92.402 135.716 87.3929 135.716 84.5413 138.571L45.711 177.445C43.6405 179.518 39.8991 179.518 37.8286 177.445L2.55331 142.13C0.482231 140.056 0.482227 136.309 2.55331 134.235L41.3835 95.3607C44.2346 92.5064 44.2346 87.4936 41.3835 84.6393L2.55331 45.7648C0.482229 43.6913 0.482229 39.9436 2.55331 37.8702L37.8286 2.55461C39.8991 0.481796 43.6405 0.481796 45.711 2.55461L84.5413 41.4291C87.3929 44.2841 92.402 44.2841 95.2536 41.4291L134.084 2.55461C136.154 0.481796 139.896 0.481796 141.966 2.55461L177.242 37.8702C179.608 40.2393 179.552 43.6816 177.28 45.7286Z"
          stroke="url(#paint0_linear_88_3372)" stroke-width="2"/>
    <defs>
        <linearGradient id="paint0_linear_88_3372" x1="0" y1="90" x2="180" y2="90" gradientUnits="userSpaceOnUse">
            <stop stop-color="#F7941D"/>
            <stop offset="1" stop-color="#27AAE1"/>
        </linearGradient>
    </defs>
</svg>