<?xml version="1.0" encoding="utf-8"?>
<!-- Generator: Adobe Illustrator 26.0.1, SVG Export Plug-In . SVG Version: 6.00 Build 0)  -->
<svg version="1.1" id="Слой_1" xmlns="http://www.w3.org/2000/svg" xmlns:xlink="http://www.w3.org/1999/xlink" x="0px"
     y="0px"
     viewBox="0 0 20 17" style="enable-background:new 0 0 20 17;" xml:space="preserve">
<style type="text/css">
	.st0{fill:#00093C;}
</style>
    <g>
	<path class="st0" d="M18,7.5H2c-1.1,0-2-0.9-2-2v-3c0-1.1,0.9-2,2-2h16c1.1,0,2,0.9,2,2v3C20,6.6,19.1,7.5,18,7.5z M2,2.5L2,2.5v3
		h16v-3H2z"/>
</g>
    <g>
	<path class="st0" d="M18,16.5H2c-1.1,0-2-0.9-2-2v-3c0-1.1,0.9-2,2-2h16c1.1,0,2,0.9,2,2v3C20,15.6,19.1,16.5,18,16.5z M2,11.5
		L2,11.5v3h16v-3H2z"/>
</g>
</svg>