<?xml version="1.0" encoding="utf-8"?>
<!-- Generator: Adobe Illustrator 26.0.1, SVG Export Plug-In . SVG Version: 6.00 Build 0)  -->
<svg version="1.1" id="Слой_1" xmlns="http://www.w3.org/2000/svg" xmlns:xlink="http://www.w3.org/1999/xlink" x="0px"
     y="0px"
     viewBox="0 0 17 20" style="enable-background:new 0 0 17 20;" xml:space="preserve">
<style type="text/css">
	.st0{fill:#00093C;}
</style>
    <g>
	<path class="st0" d="M8.5,20L8,19.7c-0.2-0.1-0.5-0.3-0.8-0.5c-0.7-0.5-1.8-1.4-2.9-2.4C1.5,14,0,11.2,0,8.5C0,3.8,3.8,0,8.5,0
		C13.2,0,17,3.8,17,8.5c0,2.7-1.5,5.5-4.2,8.2c-1.1,1.1-2.2,1.9-2.9,2.4c-0.3,0.2-0.6,0.4-0.8,0.5L8.5,20z M8.5,2C4.9,2,2,4.9,2,8.5
		c0,2.7,2,5.1,3.6,6.8c1,1,2,1.8,2.7,2.2c0.1,0,0.1,0.1,0.2,0.1c0.1,0,0.1-0.1,0.2-0.1c0.7-0.5,1.7-1.3,2.7-2.2
		C13,13.6,15,11.2,15,8.5C15,4.9,12.1,2,8.5,2z"/>
</g>
    <g>
	<circle class="st0" cx="8.5" cy="7.5" r="2.5"/>
</g>
</svg>