<svg width="131" height="131" viewBox="0 0 131 131" fill="none" xmlns="http://www.w3.org/2000/svg">
    <path d="M128.794 33.2511L128.775 33.2687L128.756 33.2873L100.68 61.3633C98.5101 63.5333 98.5101 67.33 100.68 69.5L128.756 97.576C130.145 98.965 130.145 101.495 128.756 102.884L103.25 128.39C101.862 129.779 99.3312 129.779 97.9422 128.39L69.8662 100.314C67.6962 98.1439 63.8995 98.1439 61.7295 100.314L33.6535 128.39C32.2645 129.779 29.7342 129.779 28.3453 128.39L2.83956 102.884C1.45062 101.495 1.45062 98.965 2.83956 97.576L30.9156 69.5C33.0856 67.33 33.0856 63.5333 30.9156 61.3633L2.83956 33.2873C1.45062 31.8983 1.45062 29.368 2.83956 27.979L28.3453 2.47335C29.7342 1.0844 32.2645 1.0844 33.6535 2.47335L61.7295 30.5494C63.8995 32.7194 67.6962 32.7194 69.8662 30.5494L97.9422 2.47335C99.3312 1.0844 101.862 1.0844 103.25 2.47335L128.756 27.979C130.365 29.5876 130.308 31.8885 128.794 33.2511Z"
          stroke="url(#paint0_linear_88_6014)" stroke-width="2"/>
    <defs>
        <linearGradient id="paint0_linear_88_6014" x1="0.797852" y1="65.4316" x2="130.946" y2="65.4316"
                        gradientUnits="userSpaceOnUse">
            <stop stop-color="#F7941D"/>
            <stop offset="1" stop-color="#27AAE1"/>
        </linearGradient>
    </defs>
</svg>