<?xml version="1.0" encoding="utf-8"?>
<!-- Generator: Adobe Illustrator 26.0.1, SVG Export Plug-In . SVG Version: 6.00 Build 0)  -->
<svg version="1.1" id="Слой_1" xmlns="http://www.w3.org/2000/svg" xmlns:xlink="http://www.w3.org/1999/xlink" x="0px"
     y="0px"
     viewBox="0 0 18 19" style="enable-background:new 0 0 18 19;" xml:space="preserve">
<style type="text/css">
	.st0{fill:#00093C;}
</style>
    <g>
	<path class="st0" d="M8.5,10.4c-2.4,0-4.3-1.9-4.3-4.3V4.3C4.2,1.9,6.1,0,8.5,0c2.4,0,4.3,1.9,4.3,4.3v1.8
		C12.8,8.5,10.9,10.4,8.5,10.4z M8.5,2C7.2,2,6.2,3,6.2,4.3v1.8c0,1.3,1,2.3,2.3,2.3s2.3-1,2.3-2.3V4.3C10.8,3,9.8,2,8.5,2z"/>
</g>
    <g>
	<path class="st0" d="M15.3,18.3H2c-1.1,0-2-0.9-2-2v-0.9c0-2.2,1.8-4,4-4h9.3c2.2,0,4,1.8,4,4v0.9C17.3,17.4,16.4,18.3,15.3,18.3z
		 M4,13.4c-1.1,0-2,0.9-2,2v0.9h13.3v-0.9c0-1.1-0.9-2-2-2H4z"/>
</g>
</svg>