<?xml version="1.0" encoding="utf-8"?>
<!-- Generator: Adobe Illustrator 26.0.1, SVG Export Plug-In . SVG Version: 6.00 Build 0)  -->
<svg version="1.1" id="Слой_1" xmlns="http://www.w3.org/2000/svg" xmlns:xlink="http://www.w3.org/1999/xlink" x="0px" y="0px"
	 viewBox="0 0 100 71" style="enable-background:new 0 0 100 71;" xml:space="preserve">
<style type="text/css">
	.st0{fill:#FFFFFF;}
</style>
<path class="st0" d="M16.5,70.6C7.4,70.6,0,63.3,0,54.2c0-9.1,7.4-16.5,16.5-16.5c9.1,0,16.5,7.4,16.5,16.5
	C32.9,63.3,25.5,70.6,16.5,70.6z"/>
<path class="st0" d="M55.4,1.8L37.5,31c-0.5,0.8,0,1.9,1,1.9h17.9h17.9c0.9,0,1.5-1.1,1-1.9L57.4,1.8C56.9,1.1,55.8,1.1,55.4,1.8z"
	/>
<path class="st0" d="M32.6,6.8l-6.4-6.4c-0.4-0.4-1.2-0.4-1.7,0l-7.1,7.1c-0.4,0.4-1.2,0.4-1.7,0L8.6,0.3c-0.4-0.4-1.2-0.4-1.7,0
	L0.4,6.8C0,7.2,0,8,0.4,8.5l7.1,7.1C8,16,8,16.8,7.5,17.3l-7.1,7.1C0,24.8,0,25.6,0.4,26l6.4,6.4c0.4,0.4,1.2,0.4,1.7,0l7.1-7.1
	c0.4-0.4,1.2-0.4,1.7,0l7.1,7.1c0.4,0.4,1.2,0.4,1.7,0l6.4-6.4c0.4-0.4,0.4-1.2,0-1.7l-7.1-7.1c-0.4-0.4-0.4-1.2,0-1.7l7.1-7.1
	C33.1,8,33.1,7.3,32.6,6.8z"/>
<path class="st0" d="M40.7,49.1v2.1h3.6v1.4h-3.6v2.8h-1.8v-7.8h5.9v1.4H40.7z"/>
<path class="st0" d="M47.2,54.7c-0.6-0.6-0.9-1.5-0.9-2.6v-4.4h1.8v4.3c0,1.4,0.6,2.1,1.7,2.1c0.5,0,1-0.1,1.3-0.5s0.4-0.8,0.4-1.6
	v-4.3h1.8V52c0,1.1-0.3,2-0.9,2.6c-0.6,0.6-1.5,0.9-2.6,0.9C48.7,55.6,47.8,55.3,47.2,54.7z"/>
<path class="st0" d="M56.9,49.1h-2.5v-1.5h6.8v1.5h-2.5v6.3h-1.8V49.1z"/>
<path class="st0" d="M63.3,54.7c-0.6-0.6-0.9-1.5-0.9-2.6v-4.4h1.8v4.3c0,1.4,0.6,2.1,1.7,2.1c0.5,0,1-0.1,1.3-0.5s0.4-0.8,0.4-1.6
	v-4.3h1.8V52c0,1.1-0.3,2-0.9,2.6c-0.6,0.6-1.5,0.9-2.6,0.9C64.8,55.6,63.9,55.3,63.3,54.7z"/>
<path class="st0" d="M76.5,55.5L75,53.3h-0.1h-1.6v2.2h-1.8v-7.8h3.4c0.7,0,1.3,0.1,1.8,0.3s0.9,0.5,1.2,1c0.2,0.4,0.4,0.9,0.4,1.5
	c0,0.6-0.1,1.1-0.4,1.5c-0.3,0.4-0.7,0.7-1.2,0.9l1.7,2.5H76.5z M76,49.5c-0.3-0.2-0.7-0.3-1.2-0.3h-1.5v2.7h1.5
	c0.5,0,0.9-0.1,1.2-0.3s0.4-0.5,0.4-1C76.5,50,76.3,49.7,76,49.5z"/>
<path class="st0" d="M86.1,54v1.4h-6v-7.8H86v1.4h-4.1v1.7h3.6v1.4h-3.6V54H86.1z"/>
<path class="st0" d="M44,68.3h-3.6l-0.7,1.7h-1.8l3.5-7.8h1.8l3.5,7.8h-1.9L44,68.3z M43.5,66.9l-1.2-3l-1.2,3H43.5z"/>
<path class="st0" d="M49.2,69.5c-0.6-0.3-1.1-0.8-1.5-1.4s-0.5-1.3-0.5-2.1c0-0.7,0.2-1.4,0.5-2.1c0.3-0.6,0.9-1.1,1.5-1.4
	c0.6-0.3,1.3-0.5,2.1-0.5c0.7,0,1.3,0.1,1.8,0.3s1,0.6,1.4,1l-1.1,1c-0.5-0.6-1.2-0.9-1.9-0.9c-0.5,0-0.9,0.1-1.3,0.3
	s-0.7,0.5-0.9,0.9S49,65.5,49,66c0,0.5,0.1,0.9,0.3,1.3s0.5,0.7,0.9,0.9s0.8,0.3,1.3,0.3c0.8,0,1.4-0.3,1.9-0.9l1.1,1
	c-0.3,0.4-0.8,0.8-1.4,1S52,70,51.3,70C50.6,70,49.9,69.9,49.2,69.5z"/>
<path class="st0" d="M61.1,68.3h-3.6l-0.7,1.7h-1.8l3.5-7.8h1.8l3.5,7.8h-1.9L61.1,68.3z M60.6,66.9l-1.2-3l-1.2,3H60.6z"/>
<path class="st0" d="M64.9,62.1h3.5c0.8,0,1.6,0.1,2.2,0.5c0.6,0.3,1.1,0.8,1.5,1.3c0.3,0.6,0.5,1.2,0.5,2s-0.2,1.4-0.5,2
	s-0.8,1-1.5,1.3c-0.6,0.3-1.4,0.5-2.2,0.5h-3.5V62.1z M68.3,68.5c0.8,0,1.4-0.2,1.8-0.6c0.4-0.4,0.7-1,0.7-1.7
	c0-0.7-0.2-1.3-0.7-1.7c-0.4-0.4-1.1-0.6-1.8-0.6h-1.6v4.8L68.3,68.5L68.3,68.5z"/>
<path class="st0" d="M80.4,68.5v1.4h-6v-7.8h5.9v1.4h-4.1v1.7h3.6v1.4h-3.6v1.8H80.4z"/>
<path class="st0" d="M89.3,69.9v-4.7L87,69.1h-0.8l-2.3-3.7v4.6h-1.7v-7.8h1.5l2.9,4.8l2.9-4.8H91v7.8H89.3z"/>
<path class="st0" d="M97,67.2v2.8h-1.8v-2.8l-3-5h1.9l2.1,3.5l2-3.5h1.8L97,67.2z"/>
</svg>
