<svg width="230" height="230" viewBox="0 0 230 230" fill="none" xmlns="http://www.w3.org/2000/svg">
    <path d="M226.71 58.8076L226.691 58.8252L226.672 58.8438L177.056 108.46C173.521 111.995 173.521 118.219 177.056 121.754L226.672 171.371C229.426 174.125 229.426 179.082 226.672 181.837L181.598 226.911C178.844 229.665 173.887 229.665 171.133 226.911L121.516 177.294C117.981 173.759 111.757 173.759 108.222 177.294L58.6054 226.911C55.8512 229.665 50.8939 229.665 48.1397 226.911L3.06563 181.837C0.311455 179.082 0.311455 174.125 3.06563 171.371L52.682 121.754C56.2172 118.219 56.2172 111.995 52.682 108.46L3.06563 58.8438C0.311455 56.0896 0.311456 51.1321 3.06563 48.378L48.1397 3.30391C50.8939 0.549737 55.8512 0.549737 58.6054 3.30391L108.222 52.9203C111.757 56.4555 117.981 56.4555 121.516 52.9203L171.133 3.30391C173.887 0.549737 178.844 0.549737 181.598 3.30391L226.672 48.378C229.798 51.5034 229.741 56.0798 226.71 58.8076Z"
          fill="white" stroke="url(#paint0_linear_88_3449)" stroke-width="2"/>
    <defs>
        <linearGradient id="paint0_linear_88_3449" x1="0" y1="115.107" x2="230" y2="115.107"
                        gradientUnits="userSpaceOnUse">
            <stop stop-color="#F7941D"/>
            <stop offset="1" stop-color="#27AAE1"/>
        </linearGradient>
    </defs>
</svg>