<svg width="81" height="102" viewBox="0 0 81 102" fill="none" xmlns="http://www.w3.org/2000/svg">
<path d="M6.13564 76.7565C6.97847 75.1514 7.91656 73.8524 8.55877 72.142C9.20097 70.4317 10.119 70.1459 11.9246 71.0941C20.7522 75.7296 29.5798 80.3652 38.608 85.1061C39.6112 85.6329 40.8149 86.265 41.818 86.7917C43.0218 87.4239 43.2123 88.0358 42.5802 89.2396C41.632 91.0452 40.7892 92.6502 39.841 94.4559C39.1035 95.8603 38.3863 96.2515 36.9819 95.514C31.9662 92.8801 26.9505 90.2463 22.1354 87.7178C20.731 86.9803 19.3267 86.2429 17.9223 85.5054C14.311 83.609 10.6997 81.7126 7.08837 79.8163C5.48335 78.9734 5.39816 78.1608 6.13564 76.7565ZM14.9799 65.2759C24.0393 58.2595 31.4085 49.5876 36.5809 39.2503C37.4237 37.6452 38.141 37.254 39.9467 38.2022C44.2551 40.7206 48.7743 42.8378 53.1881 45.1556C54.3919 45.7877 54.783 46.505 54.1509 47.7088C48.3665 58.2366 45.2004 69.6275 44.5572 81.5754C44.5471 82.082 44.3364 82.4833 44.221 83.1905L13.1238 66.8607C13.7458 66.1636 14.2626 65.6671 14.9799 65.2759ZM60.211 38.6054C61.816 39.4483 62.7038 40.6823 61.6603 42.182C60.8175 43.787 59.2976 43.7567 57.8932 43.0192C54.6832 41.3336 51.2726 39.5426 48.0625 37.8569L38.4325 32.8C36.8274 31.9571 35.9397 30.7231 36.7825 29.1181C37.7307 27.3125 39.1452 27.5433 40.7502 28.3862C43.7597 29.9665 46.769 31.5468 49.979 33.2324C53.1891 34.9181 56.5997 36.7091 60.211 38.6054ZM54.4699 16.3944C56.9379 14.619 59.4059 12.8436 62.2853 10.7723C62.2147 14.3185 62.0489 17.5588 62.189 20.7038C62.1286 23.7434 62.4245 24.1548 65.2534 24.6165C67.5757 25.0682 70.204 25.4245 72.5263 25.8762C72.6216 26.1822 72.6216 26.1822 72.7169 26.4882C69.3209 29.056 65.7243 31.5185 62.233 33.7804C61.8216 34.0763 60.8083 34.056 60.2064 33.74C54.9901 31.0008 49.7738 28.2616 44.5575 25.5224C43.9557 25.2063 43.4591 24.6896 43.4692 24.183C43.4546 19.8242 43.6406 15.5707 43.7414 10.5047C45.9282 12.6768 47.513 14.5328 49.2032 16.1882C49.9957 17.1162 50.4921 17.6329 51.094 17.949C51.8013 18.0644 52.5186 17.6732 54.4699 16.3944ZM65.336 0.0886221C63.3096 0.0483012 61.1476 1.72845 61.4132 3.6596C61.7641 6.40335 59.8227 7.17557 58.1774 8.35917C56.5321 9.54277 54.9922 10.5258 53.3468 11.7094C52.4188 12.5018 51.7116 12.3864 50.9192 11.4584C48.4365 8.87494 46.1545 6.39682 43.5665 4.014C42.8693 3.39196 41.4649 2.6545 40.7476 3.04568C40.0303 3.43685 39.2928 4.84124 39.2727 5.85446C38.9712 10.8152 38.9757 15.6806 38.8749 20.7467C38.9601 21.5593 38.8447 22.2665 38.7293 22.9738C32.3138 24.4679 30.618 28.1845 33.2408 33.913C33.5367 34.3243 33.5166 35.3375 33.3059 35.7388C30.9982 39.646 28.8911 43.6585 26.3828 47.4604C21.7875 54.2615 15.7027 59.5126 9.12138 64.247C8.19336 65.0395 7.26529 65.8319 6.73852 66.835C4.7368 70.6469 2.84043 74.2582 0.838707 78.0701C-0.109476 79.8758 0.376999 80.8991 1.98202 81.7419C14.0196 88.0631 26.0573 94.3844 38.0949 100.706C39.9006 101.654 40.9239 101.167 41.7667 99.5623C43.4524 96.3523 45.2434 92.9416 46.929 89.7316C47.7719 88.1266 48.2134 86.3108 48.349 84.5904C48.6963 72.2312 51.4612 60.6296 57.6569 49.8058C58.289 48.602 58.911 47.9048 60.5361 47.7344C61.8553 47.6593 63.29 46.877 64.2181 46.0846C66.8015 43.602 67.1679 40.467 65.3073 37.1864C70.2433 33.6356 74.7681 30.3807 79.3981 26.9252C80.2208 26.3334 80.6522 25.0242 80.567 24.2117C80.3765 23.5997 79.2781 22.767 78.3703 22.5462C75.1401 21.8738 71.8045 21.4019 68.6695 21.0354C66.9491 20.8998 66.0513 20.1725 66.2923 18.2514C66.5433 15.8237 66.4884 13.4913 66.5388 10.9583C66.4637 9.63907 66.8851 8.83657 68.0138 8.1495C69.8597 7.07125 70.512 4.85424 69.7397 2.913C69.2532 1.8897 68.6615 1.06705 67.6583 0.540279C67.0564 0.224218 66.1486 0.00342882 65.336 0.0886221Z" fill="url(#paint0_linear_88_3561)"/>
<defs>
<linearGradient id="paint0_linear_88_3561" x1="23.3844" y1="35.1359" x2="64.3124" y2="56.6281" gradientUnits="userSpaceOnUse">
<stop stop-color="#F7941D"/>
<stop offset="1" stop-color="#27AAE1"/>
</linearGradient>
</defs>
</svg>
