<svg width="56" height="77" viewBox="0 0 56 77" fill="none" xmlns="http://www.w3.org/2000/svg">
<path d="M5.37212 56.9352C6.08683 55.6972 7.0185 54.4012 7.59566 53.0839C8.23096 51.9835 8.74434 51.7297 9.98225 52.4444C13.696 54.5885 17.4097 56.7327 21.1235 58.8768C24.8372 61.0209 28.4134 63.0856 32.1271 65.2298C33.2275 65.8651 33.402 66.516 32.7667 67.6163C31.9144 68.7748 31.2578 70.2297 30.5431 71.4676C30.0667 72.2929 29.6327 72.4091 28.8074 71.9327C21.2424 67.565 13.6774 63.1973 5.97477 58.7502C5.01195 58.1944 4.89564 57.7604 5.37212 56.9352ZM41.7619 33.9301C43.1374 34.7242 43.1743 35.2957 42.4596 36.5336C39.0661 42.0935 36.3023 47.8336 34.9933 54.2303C34.5692 56.553 34.4203 59.0345 34.1338 61.4366C34.1125 61.7911 33.9537 62.0662 33.853 62.5583L11.708 49.7729C11.8668 49.4978 12.0257 49.2227 12.3221 49.0271C19.7101 44.4896 24.8023 37.893 29.0906 30.4655C30.8377 27.4395 30.4831 27.4182 32.6838 28.6888C32.9589 28.8476 33.3716 29.0859 33.7843 29.3242C34.8846 29.9595 35.8474 30.5153 36.9478 31.1506C37.6355 31.5477 38.3233 31.9448 39.011 32.3418C39.6987 32.7389 40.6616 33.2948 41.7619 33.9301ZM30.1359 21.3491C30.6336 20.1693 31.7765 20.0956 33.2895 20.9691C38.1037 23.7486 42.7803 26.4486 47.5944 29.228C49.1074 30.1016 49.4774 31.0488 48.8421 32.1492C47.9105 33.4452 46.7888 33.1645 45.6885 32.5292C43.3502 31.1791 41.0119 29.8291 38.6736 28.4791C36.3353 27.1291 33.997 25.7791 31.6588 24.4291C30.2833 23.635 29.4793 22.804 30.1359 21.3491ZM35.947 17.0016C37.7636 11.6316 44.522 6.91401 50.2735 7.11692C50.628 7.13819 51.0988 7.59338 51.2945 7.88975C53.6525 13.6526 53.9629 19.1503 50.1568 24.472C48.9869 26.1807 48.7699 26.2389 46.9818 25.2065C45.3313 24.2535 43.6808 23.3006 42.0302 22.3477C40.2421 21.3153 38.454 20.2829 36.6659 19.2506L36.5284 19.1712C35.7031 18.6947 35.6081 17.9063 35.947 17.0016ZM49.9999 2.1907C49.4809 3.72499 48.6131 3.95753 47.3908 4.16878C40.6863 5.61643 35.5686 9.08052 33.0373 15.6884C32.6189 16.7307 32.2431 17.0639 31.2378 17.217C28.0047 17.7345 25.8818 21.0937 27.1296 24.0149C27.891 25.5549 27.6102 26.6765 26.6785 27.9726C26.3609 28.5228 25.9638 29.2105 25.5668 29.8982C22.0726 35.9502 18.0283 41.6847 11.9846 45.1643C7.56037 47.745 4.64911 51.1993 2.59997 55.7014C2.20291 56.3892 1.88525 56.9394 1.48819 57.6271C0.614658 59.1401 0.789008 59.7909 2.30202 60.6645C5.05294 62.2527 7.94146 63.9204 10.6924 65.5087C12.3429 66.4616 13.8559 67.3351 15.5065 68.2881C19.908 70.8293 24.3094 73.3705 28.7109 75.9116C30.2239 76.7852 30.8748 76.6108 31.7483 75.0978C32.7807 73.3097 33.7549 71.3046 34.9248 69.5959C36.4124 67.3371 36.974 65.0938 36.9272 62.3159C36.8509 52.9186 40.8272 44.7609 45.6288 37.0796C45.7876 36.8045 46.301 36.5507 46.6555 36.5719C51.169 36.0601 52.9742 33.2511 51.5152 29.1076C51.3989 28.6737 51.4415 27.9647 51.7378 27.769C56.4118 22.2147 56.9323 15.913 54.7757 9.16604C54.3474 8.00184 54.1149 7.13401 55.1841 5.91737C56.5497 4.50506 56.0478 2.19793 54.2597 1.16557C52.7098 -0.279431 50.5402 0.301909 49.9999 2.1907Z" fill="url(#paint0_linear_88_3563)"/>
<defs>
<linearGradient id="paint0_linear_88_3563" x1="19.6609" y1="25.889" x2="50.0551" y2="43.4371" gradientUnits="userSpaceOnUse">
<stop stop-color="#F7941D"/>
<stop offset="1" stop-color="#27AAE1"/>
</linearGradient>
</defs>
</svg>
