<svg width="99" height="120" viewBox="0 0 99 120" fill="none" xmlns="http://www.w3.org/2000/svg">
<path d="M39.4982 110.943L91.1061 87.0154L93.1539 91.4323L41.546 115.36L39.4982 110.943ZM40.4323 102.601C39.6779 100.974 39.4792 99.9364 41.5714 98.9664C54.5896 92.9307 67.6078 86.895 80.626 80.8593C82.7182 79.8892 83.3818 80.7113 84.1363 82.3386C84.8907 83.9659 84.7491 84.8789 82.8894 85.7411C76.3803 88.759 69.8713 91.7768 63.3622 94.7946C56.8531 97.8125 50.3439 100.83 43.8348 103.848C42.2075 104.603 41.2946 104.461 40.4323 102.601ZM48.2412 43.9053C49.8684 43.1508 50.6566 43.6327 51.3033 45.0275C55.1834 53.3964 59.2961 61.6574 65.2853 68.4835C67.8319 71.5394 70.7356 74.1472 73.5147 77.0954C73.9627 77.4525 74.5185 78.0422 75.0743 78.6318L43.6911 93.1822C43.6003 92.377 43.6171 91.8043 43.634 91.2316C43.6721 82.1759 41.7426 73.75 38.4352 65.3981C36.8354 61.3383 35.1278 57.0461 33.2956 53.0941C32.6489 51.6993 32.8982 51.0188 34.293 50.3722C36.8502 49.1866 39.1748 48.1088 41.732 46.9232C43.8242 45.9532 45.9165 44.9831 48.2412 43.9053ZM21.0297 49.1781C20.383 47.7833 19.5038 46.4963 21.8285 45.4185C32.0571 40.6761 42.2857 35.9338 52.5143 31.1914C54.374 30.3292 54.9299 30.9188 55.6844 32.5461C56.331 33.9409 57.1024 34.9954 54.7777 36.0733C49.5556 38.212 44.3166 40.9234 39.2023 43.2946C34.088 45.6658 29.2062 47.9291 24.0919 50.3003C24.0919 50.3003 24.092 50.3003 23.8595 50.4081C22.4647 51.0548 21.7841 50.8054 21.0297 49.1781ZM12.5171 42.3922C10.4693 37.9753 8.65393 33.4506 6.37363 29.1415C5.4036 27.0493 6.56595 26.5104 7.96076 25.8637C9.35557 25.217 10.6257 24.9106 11.2555 26.8781C11.6697 28.3807 12.6566 29.9002 13.3033 31.295C13.95 32.6898 14.9707 33.0639 16.3655 32.4172C19.1551 31.1238 21.9448 29.8304 24.7344 28.5371C26.1292 27.8904 26.5032 26.8696 25.8566 25.4748C25.1021 23.8476 24.3476 22.2203 23.5932 20.593C23.0543 19.4307 23.3037 18.7502 24.466 18.2113C26.5582 17.2412 28.4179 16.379 30.5101 15.409C31.6724 14.8701 32.1206 15.2272 32.6595 16.3895C33.4139 18.0168 34.1684 19.6441 34.9229 21.2714C35.5695 22.6662 36.5902 23.0403 37.985 22.3936C40.7746 21.1002 43.5643 19.8068 46.3539 18.5135C47.7487 17.8668 48.1227 16.8461 47.476 15.4512C46.7216 13.824 46.0749 12.4292 45.3204 10.8019C44.2257 9.04993 45.6205 8.40325 46.7829 7.86434C47.0153 7.75656 47.0154 7.75655 47.2478 7.64877C48.4102 7.10986 49.3401 6.67871 50.2023 8.53846C52.3579 13.1878 54.5136 17.8372 56.6692 22.4865C57.3159 23.8813 57.0664 24.5619 55.6716 25.2086C48.93 28.3342 42.421 31.3521 35.6794 34.4777C33.8196 35.3399 31.9599 36.2022 30.1002 37.0644C25.4508 39.22 20.8014 41.3757 15.9196 43.6391C15.9196 43.6391 15.9196 43.6391 15.6871 43.7468C14.0599 44.5013 13.2716 44.0195 12.5171 42.3922ZM39.7349 9.71985L42.3216 15.2991L37.6723 17.4547C36.7022 15.3625 35.84 13.5027 34.9777 11.643C34.1155 9.78325 33.0948 9.40916 31.2351 10.2714C27.2831 12.1037 23.3311 13.936 19.6116 15.6605C17.7519 16.5227 17.3778 17.5435 18.24 19.4032C19.1023 21.263 20.0723 23.3552 20.9345 25.2149L16.2852 27.3705C15.3152 25.2783 14.4529 23.4186 13.4829 21.3264C12.7284 19.6991 11.6 19.0925 9.74021 19.9548C8.3454 20.6015 6.71807 21.356 5.32326 22.0026C4.39339 22.4338 3.69605 22.7571 2.76617 23.1882C0.209027 24.3738 0.0673899 25.2868 1.1452 27.6115C4.05528 33.8881 7.07314 40.3972 9.98322 46.6738C11.1688 49.231 11.6169 49.5881 14.174 48.4025C15.3363 47.8636 16.0168 48.113 16.6635 49.5078C17.3102 50.9026 18.0646 52.5299 18.7113 53.9247C19.5736 55.7845 20.8268 56.0507 22.4541 55.2963C24.3138 54.434 26.1735 53.5718 28.0333 52.7095C30.2967 57.5914 32.577 61.9005 34.5001 66.6576C37.6997 74.7771 39.6292 83.203 39.1432 91.9015C38.9678 93.9599 38.4691 95.3209 36.5015 95.9507C34.3016 96.6882 34.0352 97.9414 35.0053 100.034C35.6519 101.428 36.2986 102.823 36.8375 103.986C37.4842 105.38 37.5751 106.186 35.8401 106.708C34.105 107.23 33.8387 108.483 34.5932 110.11C35.7788 112.667 36.8566 114.992 38.0422 117.549C38.9044 119.409 39.9251 119.783 41.7849 118.921C45.9693 116.981 50.1537 115.041 54.5706 112.993C68.5187 106.526 82.2343 100.167 96.1824 93.6999C98.7395 92.5143 98.9889 91.8339 97.8033 89.2767C96.7255 86.952 95.7555 84.8598 94.6777 82.5351C93.8154 80.6754 92.8116 79.7286 90.8272 80.9311C89.6649 81.47 88.9843 81.2206 88.4454 80.0583C87.691 78.431 87.0443 77.0362 86.2898 75.4089C85.5354 73.7816 84.1744 73.2829 82.8873 74.162C80.3133 75.9203 78.6289 74.7242 76.729 73.0631C75.385 71.9917 73.9331 70.6877 72.8215 69.5085C66.1349 63.0057 61.5573 54.9602 57.4448 46.6991C56.4747 44.6069 55.3969 42.2823 54.3191 39.9576C56.4113 38.9876 58.271 38.1253 60.3632 37.1553C61.9905 36.4008 62.5971 35.2723 61.7349 33.4125C61.0882 32.0177 60.4415 30.6229 59.7948 29.2281C59.1481 27.8333 59.2897 26.9203 60.7923 26.5061C62.5273 25.9841 63.026 24.6232 62.2716 22.9959C59.1459 16.2543 55.9125 9.28028 52.7869 2.53871C52.0324 0.911439 50.9039 0.304883 49.152 1.3996C46.5948 2.58518 44.2701 3.663 41.713 4.84859C41.713 4.84859 41.713 4.84857 41.4806 4.95635C39.139 6.60687 38.9804 8.09257 39.7349 9.71985Z" fill="url(#paint0_linear_88_3559)"/>
<defs>
<linearGradient id="paint0_linear_88_3559" x1="17.4479" y1="73.13" x2="77.4245" y2="45.3226" gradientUnits="userSpaceOnUse">
<stop stop-color="#F7941D"/>
<stop offset="1" stop-color="#27AAE1"/>
</linearGradient>
</defs>
</svg>
